<svg width="32" height="32" viewBox="0 0 32 32" fill="none" xmlns="http://www.w3.org/2000/svg">
<path opacity="0.4" d="M21.3325 3.27148H10.6659C6.03263 3.27148 3.27051 6.0336 3.27051 10.6668V21.3207C3.27051 25.9667 6.03263 28.7288 10.6659 28.7288H21.3197C25.953 28.7288 28.7151 25.9667 28.7151 21.3335V10.6668C28.7278 6.0336 25.9657 3.27148 21.3325 3.27148Z" fill="#E8E8E8"/>
<path d="M16.0004 17.2733C15.2876 17.2733 14.7275 16.7005 14.7275 16.0004C14.7275 15.3003 15.3003 14.7275 16.0004 14.7275C16.7005 14.7275 17.2733 15.3003 17.2733 16.0004C17.2733 16.7005 16.7132 17.2733 16.0004 17.2733Z" fill="#292D32"/>
<path d="M21.0922 17.2733C20.3794 17.2733 19.8193 16.7005 19.8193 16.0004C19.8193 15.3003 20.3921 14.7275 21.0922 14.7275C21.7923 14.7275 22.3651 15.3003 22.3651 16.0004C22.3651 16.7005 21.805 17.2733 21.0922 17.2733Z" fill="#292D32"/>
<path d="M10.9086 17.2733C10.1958 17.2733 9.63574 16.7005 9.63574 16.0004C9.63574 15.3003 10.2085 14.7275 10.9086 14.7275C11.6087 14.7275 12.1815 15.3003 12.1815 16.0004C12.1815 16.7005 11.6214 17.2733 10.9086 17.2733Z" fill="#292D32"/>
</svg>
